<svg xmlns="http://www.w3.org/2000/svg" viewBox="0 0 439.16 284.19"><defs><style>.cls-1{fill:#009291;}</style></defs><title>Ресурс 2</title><g id="Слой_2" data-name="Слой 2"><g id="Слой_1-2" data-name="Слой 1"><path class="cls-1" d="M211.8,114.34l-.25-2.42-2.43.18c-.59,0-14.57,1.2-27,13.62-12.3,12.26-15.45,25.57-15.58,26.13l-.59,2.58,2.6.45c.44.08,10.71,1.83,18.88-2.44s10.92-10.73,11-11a2.5,2.5,0,0,0-1.37-3.25,2.53,2.53,0,0,0-3.28,1.35,19.39,19.39,0,0,1-8.7,8.46c-4.32,2.26-9.62,2.4-12.83,2.24a57.26,57.26,0,0,1,13.39-21A43.49,43.49,0,0,1,207,117.5c.39,4.65,1,14.24.27,19.32-1,6.35-8.12,19.06-19,26.38-8.55,5.74-25.41,6.84-31.89,7.05a107.41,107.41,0,0,1,5-26.43c4.73-13.61,11.72-18.53,14.15-21.37a20,20,0,0,0,3.51-7s-5.3-.44-8.37.5-17.74,6.71-31.94,1.86c-10.48-3.18-18.54-12.47-21.61-16.46,4.75-3.66,18.27-13.22,33.6-16.24,14.1-2.8,25.15,7.16,29.37,11.74-4,2.12-12,5.94-19.83,7-11.47,1.53-16.14-2.07-17-2.82a2.51,2.51,0,1,0-3.38,3.71c1.56,1.41,7.68,5.93,21,4.08,12-1.62,23.85-8.82,24.35-9.13l2.33-1.42L186.07,96c-.51-.68-10.73-14.28-26.55-16.2-1.5-.6-14.53-6.08-20-16.86a49,49,0,0,1-5.12-21.38c4.41-1.79,18.87-6.4,33.38,2.82a34.33,34.33,0,0,1,15.93,27.53c-3.19-.08-8.9-.46-13.26-2-6-2.17-10.58-9.69-10.63-9.77a2.51,2.51,0,0,0-4.3,2.6c.23.37,5.57,9.11,13.22,11.89,7.27,2.64,17.14,2.37,17.57,2.34l2.27-.07.15-2.26c.06-.88,1.21-21.36-17.41-33.85-.65-2.55-2.61-11-1.74-18.76.76-6.74,5.48-13.35,7.67-16.09a36.16,36.16,0,0,1,15,13.39c5.07,8,4.56,22.11,4,28.78-2.92-1.85-6.62-4.71-8.27-7.78a20.16,20.16,0,0,1-2.69-9.49A2.51,2.51,0,0,0,183,28.16a2.58,2.58,0,0,0-2.67,2.33c0,.23-.32,5.51,3.28,12.19s13.24,11.53,13.65,11.73l3.07,1.51.52-3.38c.15-1,3.51-23.67-4.29-35.93S177.76.66,177.29.51L175.75,0l-1.09,1.2c-.37.39-8.88,9.82-10.06,20.24a56.41,56.41,0,0,0,.89,16c-17.68-8.11-33.93-.18-34.67.2l-1.26.63-.11,1.41A52.44,52.44,0,0,0,135,65.22c3.51,6.91,9.48,11.83,14.45,15C129.3,84.3,112.81,98.35,112.11,99l-1.67,1.44,1.21,1.84c.43.64,10.51,15.73,25.73,20.35,11.85,3.4,24,1.37,32.46-1.08-4.81,5.39-10.41,12.85-13.13,20.68a111.72,111.72,0,0,0-5.46,30.58l-.05,2.55H154c2.58,0,25.61-.22,37.14-8S211,146.1,212.27,137.57C213.41,130.12,211.87,115,211.8,114.34Z"/><path class="cls-1" d="M225,114.34l.25-2.42,2.44.18c.59,0,14.56,1.2,27,13.62,12.3,12.26,15.45,25.57,15.58,26.13l.59,2.58-2.6.45c-.43.08-10.71,1.83-18.88-2.44s-10.92-10.73-11-11a2.51,2.51,0,0,1,4.65-1.9,19.39,19.39,0,0,0,8.7,8.46c4.32,2.26,9.63,2.4,12.83,2.24a57.2,57.2,0,0,0-13.38-21,43.51,43.51,0,0,0-21.39-11.77c-.39,4.65-1,14.24-.27,19.32,1,6.35,8.12,19.06,19,26.38,8.55,5.74,25.41,6.84,31.89,7.05a106.93,106.93,0,0,0-5.05-26.43c-4.72-13.61-11.71-18.53-14.15-21.37a19.85,19.85,0,0,1-3.5-7s5.29-.44,8.37.5,17.73,6.71,31.93,1.86c10.49-3.18,18.55-12.47,21.61-16.46-4.74-3.66-18.27-13.22-33.6-16.24-14.1-2.8-25.15,7.16-29.36,11.74,4,2.12,12,5.94,19.83,7,11.47,1.53,16.14-2.07,17-2.82a2.51,2.51,0,0,1,3.37,3.71c-1.55,1.41-7.67,5.93-21,4.08-12-1.62-23.85-8.82-24.35-9.13l-2.33-1.42L250.69,96c.5-.68,10.72-14.28,26.54-16.2,1.51-.6,14.54-6.08,20-16.86a49.11,49.11,0,0,0,5.11-21.38c-4.41-1.79-18.86-6.4-33.38,2.82A34.33,34.33,0,0,0,253,71.92c3.19-.08,8.9-.46,13.26-2,6-2.17,10.59-9.69,10.63-9.77a2.51,2.51,0,0,1,4.3,2.6c-.22.37-5.57,9.11-13.22,11.89-7.27,2.64-17.14,2.37-17.57,2.34l-2.26-.07L248,74.61c-.06-.88-1.21-21.36,17.41-33.85.65-2.55,2.61-11,1.74-18.76-.76-6.74-5.48-13.35-7.66-16.09a36.11,36.11,0,0,0-15,13.39c-5.07,8-4.56,22.11-4,28.78,2.92-1.85,6.62-4.71,8.27-7.78a20,20,0,0,0,2.69-9.49,2.51,2.51,0,0,1,2.34-2.65,2.57,2.57,0,0,1,2.67,2.33c0,.23.32,5.51-3.27,12.19S240,54.21,239.54,54.41l-3.07,1.51L236,52.54c-.14-1-3.5-23.67,4.29-35.93S259,.66,259.46.51L261,0l1.1,1.2c.36.39,8.88,9.82,10,20.24a56.44,56.44,0,0,1-.88,16c17.67-8.11,33.92-.18,34.66.2l1.26.63.12,1.41a52.52,52.52,0,0,1-5.6,25.5c-3.5,6.91-9.48,11.83-14.45,15C307.45,84.3,323.94,98.35,324.64,99l1.67,1.44-1.21,1.84c-.42.64-10.51,15.73-25.73,20.35-11.84,3.4-24,1.37-32.45-1.08,4.8,5.39,10.41,12.85,13.12,20.68a111.72,111.72,0,0,1,5.46,30.58l.06,2.55h-2.75c-2.58,0-25.62-.22-37.15-8s-19.88-21.26-21.18-29.79C223.35,130.12,224.89,115,225,114.34Z"/><path d="M37,284.19a36.95,36.95,0,1,1,37-36.95A37,37,0,0,1,37,284.19Zm0-64a27,27,0,1,0,27,27A27.07,27.07,0,0,0,37,220.2Z"/><rect x="201.98" y="210.25" width="10.04" height="73.85"/><path d="M417.29,210.3H372.47v73.8h10v-29h34.77a21.89,21.89,0,0,0,21.87-21.87v-1A21.89,21.89,0,0,0,417.29,210.3Zm11.82,22.9A11.83,11.83,0,0,1,417.29,245H382.52V220.34h34.77a11.83,11.83,0,0,1,11.82,11.82Z"/><polygon points="320.4 210.3 294.38 252.83 267.56 210.3 256.58 210.3 256.58 284.11 266.62 284.11 266.62 227.63 294.38 271.26 321.29 228.08 321.29 284.11 331.33 284.11 331.33 210.3 320.4 210.3"/><polygon points="121.44 274.06 121.44 210.25 111.4 210.25 111.4 284.1 165.79 284.1 165.79 274.06 121.44 274.06"/></g></g></svg>